<svg width="221" height="316" viewBox="0 0 221 316" fill="none" xmlns="http://www.w3.org/2000/svg">
<path d="M305.872 149.363H286.628C283.59 83.3183 230.923 30.4823 165.09 26.418V8.12862C165.09 4.06431 162.051 0 156.987 0C152.936 0 148.885 3.04823 148.885 8.12862V27.4341C83.0513 30.4823 30.3846 83.3183 26.3333 149.363H8.10256C4.05128 149.363 0 152.412 0 157.492C0 161.556 3.03846 165.621 8.10256 165.621H27.3462C31.3974 231.666 84.0641 284.502 149.897 288.566V307.871C149.897 311.936 152.936 316 158 316C162.051 316 166.103 312.952 166.103 307.871V288.566C231.936 284.502 284.603 231.666 288.654 165.621H307.897C311.949 165.621 316 162.572 316 157.492C313.974 153.428 310.936 149.363 305.872 149.363ZM165.09 273.325V253.003C165.09 248.939 162.051 244.875 156.987 244.875C152.936 244.875 148.885 247.923 148.885 253.003V273.325C92.1667 269.26 45.5769 222.521 41.5256 165.621H61.782C65.8333 165.621 69.8846 162.572 69.8846 157.492C69.8846 153.428 66.8462 149.363 61.782 149.363H41.5256C45.5769 92.463 92.1667 45.7235 148.885 41.6592V61.9807C148.885 66.045 151.923 70.1093 156.987 70.1093C161.038 70.1093 165.09 67.0611 165.09 61.9807V41.6592C221.808 45.7235 268.397 92.463 272.449 149.363H252.192C248.141 149.363 244.09 152.412 244.09 157.492C244.09 161.556 247.128 165.621 252.192 165.621H272.449C268.397 222.521 221.808 269.26 165.09 273.325Z" fill="#A88A47"/>
</svg>
